<mxfile host="app.diagrams.net" modified="2023-12-11T07:26:51.515Z" agent="Mozilla/5.0 (Windows NT 10.0; Win64; x64) AppleWebKit/537.36 (KHTML, like Gecko) Chrome/119.0.0.0 Safari/537.36" etag="CXHAx5AsMCYs_QSkcsLF" version="22.1.7" type="device">
  <diagram id="C5RBs43oDa-KdzZeNtuy" name="Page-1">
    <mxGraphModel dx="1434" dy="750" grid="1" gridSize="10" guides="1" tooltips="1" connect="1" arrows="1" fold="1" page="1" pageScale="1" pageWidth="827" pageHeight="1169" math="0" shadow="0">
      <root>
        <mxCell id="WIyWlLk6GJQsqaUBKTNV-0" />
        <mxCell id="WIyWlLk6GJQsqaUBKTNV-1" parent="WIyWlLk6GJQsqaUBKTNV-0" />
        <mxCell id="2OSr8VQqsQZBFfhrIndI-1" style="edgeStyle=orthogonalEdgeStyle;rounded=0;orthogonalLoop=1;jettySize=auto;html=1;" parent="WIyWlLk6GJQsqaUBKTNV-1" source="2OSr8VQqsQZBFfhrIndI-0" edge="1">
          <mxGeometry relative="1" as="geometry">
            <mxPoint x="329" y="120" as="targetPoint" />
          </mxGeometry>
        </mxCell>
        <mxCell id="2OSr8VQqsQZBFfhrIndI-0" value="Data Collection" style="rounded=1;whiteSpace=wrap;html=1;fillColor=#f8cecc;strokeColor=#b85450;" parent="WIyWlLk6GJQsqaUBKTNV-1" vertex="1">
          <mxGeometry x="269" y="40" width="120" height="40" as="geometry" />
        </mxCell>
        <mxCell id="2OSr8VQqsQZBFfhrIndI-22" value="" style="edgeStyle=orthogonalEdgeStyle;rounded=0;orthogonalLoop=1;jettySize=auto;html=1;" parent="WIyWlLk6GJQsqaUBKTNV-1" source="2OSr8VQqsQZBFfhrIndI-4" target="2OSr8VQqsQZBFfhrIndI-21" edge="1">
          <mxGeometry relative="1" as="geometry" />
        </mxCell>
        <mxCell id="2OSr8VQqsQZBFfhrIndI-4" value="Data Pre-processing" style="swimlane;whiteSpace=wrap;html=1;fillColor=#1ba1e2;strokeColor=#006EAF;fontColor=#ffffff;" parent="WIyWlLk6GJQsqaUBKTNV-1" vertex="1">
          <mxGeometry x="240" y="120" width="179" height="210" as="geometry" />
        </mxCell>
        <mxCell id="2OSr8VQqsQZBFfhrIndI-6" value="&lt;table&gt;&lt;tbody&gt;&lt;tr&gt;&lt;td&gt;&lt;br&gt;&lt;/td&gt;&lt;/tr&gt;&lt;tr&gt;&lt;td&gt;&lt;br&gt;&lt;/td&gt;&lt;/tr&gt;&lt;tr&gt;&lt;td&gt;&lt;br&gt;&lt;/td&gt;&lt;/tr&gt;&lt;tr&gt;&lt;td&gt;&lt;br&gt;&lt;/td&gt;&lt;/tr&gt;&lt;tr&gt;&lt;td&gt;&lt;br&gt;&lt;/td&gt;&lt;/tr&gt;&lt;tr&gt;&lt;td&gt;&lt;br&gt;&lt;/td&gt;&lt;/tr&gt;&lt;/tbody&gt;&lt;/table&gt;" style="text;html=1;align=center;verticalAlign=middle;resizable=0;points=[];autosize=1;strokeColor=none;fillColor=none;" parent="2OSr8VQqsQZBFfhrIndI-4" vertex="1">
          <mxGeometry x="20" y="-12" width="30" height="130" as="geometry" />
        </mxCell>
        <mxCell id="2OSr8VQqsQZBFfhrIndI-8" value="" style="shape=table;startSize=0;container=1;collapsible=0;childLayout=tableLayout;" parent="2OSr8VQqsQZBFfhrIndI-4" vertex="1">
          <mxGeometry x="20" y="40" width="140" height="150" as="geometry" />
        </mxCell>
        <mxCell id="2OSr8VQqsQZBFfhrIndI-9" value="" style="shape=tableRow;horizontal=0;startSize=0;swimlaneHead=0;swimlaneBody=0;strokeColor=inherit;top=0;left=0;bottom=0;right=0;collapsible=0;dropTarget=0;fillColor=none;points=[[0,0.5],[1,0.5]];portConstraint=eastwest;" parent="2OSr8VQqsQZBFfhrIndI-8" vertex="1">
          <mxGeometry width="140" height="31" as="geometry" />
        </mxCell>
        <mxCell id="2OSr8VQqsQZBFfhrIndI-10" value="&lt;br style=&quot;border-color: var(--border-color);&quot;&gt;Handling Missing Values" style="shape=partialRectangle;html=1;whiteSpace=wrap;connectable=0;strokeColor=#56517e;overflow=hidden;fillColor=#d0cee2;top=0;left=0;bottom=0;right=0;pointerEvents=1;" parent="2OSr8VQqsQZBFfhrIndI-9" vertex="1">
          <mxGeometry width="140" height="31" as="geometry">
            <mxRectangle width="140" height="31" as="alternateBounds" />
          </mxGeometry>
        </mxCell>
        <mxCell id="2OSr8VQqsQZBFfhrIndI-11" value="" style="shape=tableRow;horizontal=0;startSize=0;swimlaneHead=0;swimlaneBody=0;strokeColor=inherit;top=0;left=0;bottom=0;right=0;collapsible=0;dropTarget=0;fillColor=none;points=[[0,0.5],[1,0.5]];portConstraint=eastwest;" parent="2OSr8VQqsQZBFfhrIndI-8" vertex="1">
          <mxGeometry y="31" width="140" height="31" as="geometry" />
        </mxCell>
        <mxCell id="2OSr8VQqsQZBFfhrIndI-12" value="Exploratory Data Analysis " style="shape=partialRectangle;html=1;whiteSpace=wrap;connectable=0;strokeColor=#56517e;overflow=hidden;fillColor=#d0cee2;top=0;left=0;bottom=0;right=0;pointerEvents=1;" parent="2OSr8VQqsQZBFfhrIndI-11" vertex="1">
          <mxGeometry width="140" height="31" as="geometry">
            <mxRectangle width="140" height="31" as="alternateBounds" />
          </mxGeometry>
        </mxCell>
        <mxCell id="2OSr8VQqsQZBFfhrIndI-13" value="" style="shape=tableRow;horizontal=0;startSize=0;swimlaneHead=0;swimlaneBody=0;strokeColor=inherit;top=0;left=0;bottom=0;right=0;collapsible=0;dropTarget=0;fillColor=none;points=[[0,0.5],[1,0.5]];portConstraint=eastwest;" parent="2OSr8VQqsQZBFfhrIndI-8" vertex="1">
          <mxGeometry y="62" width="140" height="20" as="geometry" />
        </mxCell>
        <mxCell id="2OSr8VQqsQZBFfhrIndI-14" value="Encoding Categorical Variables" style="shape=partialRectangle;html=1;whiteSpace=wrap;connectable=0;strokeColor=#56517e;overflow=hidden;fillColor=#d0cee2;top=0;left=0;bottom=0;right=0;pointerEvents=1;" parent="2OSr8VQqsQZBFfhrIndI-13" vertex="1">
          <mxGeometry width="140" height="20" as="geometry">
            <mxRectangle width="140" height="20" as="alternateBounds" />
          </mxGeometry>
        </mxCell>
        <mxCell id="2OSr8VQqsQZBFfhrIndI-15" value="" style="shape=tableRow;horizontal=0;startSize=0;swimlaneHead=0;swimlaneBody=0;strokeColor=inherit;top=0;left=0;bottom=0;right=0;collapsible=0;dropTarget=0;fillColor=none;points=[[0,0.5],[1,0.5]];portConstraint=eastwest;" parent="2OSr8VQqsQZBFfhrIndI-8" vertex="1">
          <mxGeometry y="82" width="140" height="37" as="geometry" />
        </mxCell>
        <mxCell id="2OSr8VQqsQZBFfhrIndI-16" value="Correlation Analysis" style="shape=partialRectangle;html=1;whiteSpace=wrap;connectable=0;strokeColor=#56517e;overflow=hidden;fillColor=#d0cee2;top=0;left=0;bottom=0;right=0;pointerEvents=1;" parent="2OSr8VQqsQZBFfhrIndI-15" vertex="1">
          <mxGeometry width="140" height="37" as="geometry">
            <mxRectangle width="140" height="37" as="alternateBounds" />
          </mxGeometry>
        </mxCell>
        <mxCell id="2OSr8VQqsQZBFfhrIndI-17" value="" style="shape=tableRow;horizontal=0;startSize=0;swimlaneHead=0;swimlaneBody=0;strokeColor=inherit;top=0;left=0;bottom=0;right=0;collapsible=0;dropTarget=0;fillColor=none;points=[[0,0.5],[1,0.5]];portConstraint=eastwest;" parent="2OSr8VQqsQZBFfhrIndI-8" vertex="1">
          <mxGeometry y="119" width="140" height="31" as="geometry" />
        </mxCell>
        <mxCell id="2OSr8VQqsQZBFfhrIndI-18" value="Feature Scaling" style="shape=partialRectangle;html=1;whiteSpace=wrap;connectable=0;strokeColor=#56517e;overflow=hidden;fillColor=#d0cee2;top=0;left=0;bottom=0;right=0;pointerEvents=1;" parent="2OSr8VQqsQZBFfhrIndI-17" vertex="1">
          <mxGeometry width="140" height="31" as="geometry">
            <mxRectangle width="140" height="31" as="alternateBounds" />
          </mxGeometry>
        </mxCell>
        <mxCell id="2OSr8VQqsQZBFfhrIndI-24" value="" style="edgeStyle=orthogonalEdgeStyle;rounded=0;orthogonalLoop=1;jettySize=auto;html=1;" parent="WIyWlLk6GJQsqaUBKTNV-1" source="2OSr8VQqsQZBFfhrIndI-21" target="2OSr8VQqsQZBFfhrIndI-23" edge="1">
          <mxGeometry relative="1" as="geometry" />
        </mxCell>
        <mxCell id="2OSr8VQqsQZBFfhrIndI-21" value="Feature Selection" style="rounded=1;whiteSpace=wrap;html=1;fillColor=#ffe6cc;strokeColor=#d79b00;" parent="WIyWlLk6GJQsqaUBKTNV-1" vertex="1">
          <mxGeometry x="269" y="370" width="120" height="40" as="geometry" />
        </mxCell>
        <mxCell id="2OSr8VQqsQZBFfhrIndI-26" value="" style="edgeStyle=orthogonalEdgeStyle;rounded=0;orthogonalLoop=1;jettySize=auto;html=1;" parent="WIyWlLk6GJQsqaUBKTNV-1" source="2OSr8VQqsQZBFfhrIndI-23" edge="1">
          <mxGeometry relative="1" as="geometry">
            <mxPoint x="329" y="540" as="targetPoint" />
          </mxGeometry>
        </mxCell>
        <mxCell id="2OSr8VQqsQZBFfhrIndI-23" value="Data Splitting" style="rounded=1;whiteSpace=wrap;html=1;fillColor=#ffe6cc;strokeColor=#d79b00;" parent="WIyWlLk6GJQsqaUBKTNV-1" vertex="1">
          <mxGeometry x="269" y="450" width="120" height="40" as="geometry" />
        </mxCell>
        <mxCell id="UewjNEP305xuizKqZ12j-10" value="" style="edgeStyle=orthogonalEdgeStyle;rounded=0;orthogonalLoop=1;jettySize=auto;html=1;" edge="1" parent="WIyWlLk6GJQsqaUBKTNV-1" source="2OSr8VQqsQZBFfhrIndI-28" target="UewjNEP305xuizKqZ12j-0">
          <mxGeometry relative="1" as="geometry">
            <Array as="points">
              <mxPoint x="329" y="770" />
              <mxPoint x="329" y="770" />
            </Array>
          </mxGeometry>
        </mxCell>
        <mxCell id="2OSr8VQqsQZBFfhrIndI-28" value="Model Training" style="swimlane;whiteSpace=wrap;html=1;fillColor=#1ba1e2;fontColor=#ffffff;strokeColor=#006EAF;" parent="WIyWlLk6GJQsqaUBKTNV-1" vertex="1">
          <mxGeometry x="220" y="530" width="200" height="230" as="geometry" />
        </mxCell>
        <mxCell id="2OSr8VQqsQZBFfhrIndI-29" value="Here, we have used mentioned classifiers:" style="rounded=0;whiteSpace=wrap;html=1;fillColor=#fff2cc;gradientColor=#ffd966;strokeColor=#d6b656;" parent="2OSr8VQqsQZBFfhrIndI-28" vertex="1">
          <mxGeometry x="10" y="40" width="180" height="30" as="geometry" />
        </mxCell>
        <mxCell id="2OSr8VQqsQZBFfhrIndI-30" value="" style="shape=table;startSize=0;container=1;collapsible=0;childLayout=tableLayout;" parent="2OSr8VQqsQZBFfhrIndI-28" vertex="1">
          <mxGeometry x="10" y="80" width="170" height="130" as="geometry" />
        </mxCell>
        <mxCell id="2OSr8VQqsQZBFfhrIndI-31" value="" style="shape=tableRow;horizontal=0;startSize=0;swimlaneHead=0;swimlaneBody=0;strokeColor=inherit;top=0;left=0;bottom=0;right=0;collapsible=0;dropTarget=0;fillColor=none;points=[[0,0.5],[1,0.5]];portConstraint=eastwest;" parent="2OSr8VQqsQZBFfhrIndI-30" vertex="1">
          <mxGeometry width="170" height="26" as="geometry" />
        </mxCell>
        <mxCell id="2OSr8VQqsQZBFfhrIndI-32" value="Logistic Regression" style="shape=partialRectangle;html=1;whiteSpace=wrap;connectable=0;strokeColor=#56517e;overflow=hidden;fillColor=#d0cee2;top=0;left=0;bottom=0;right=0;pointerEvents=1;" parent="2OSr8VQqsQZBFfhrIndI-31" vertex="1">
          <mxGeometry width="170" height="26" as="geometry">
            <mxRectangle width="170" height="26" as="alternateBounds" />
          </mxGeometry>
        </mxCell>
        <mxCell id="2OSr8VQqsQZBFfhrIndI-33" value="" style="shape=tableRow;horizontal=0;startSize=0;swimlaneHead=0;swimlaneBody=0;strokeColor=inherit;top=0;left=0;bottom=0;right=0;collapsible=0;dropTarget=0;fillColor=none;points=[[0,0.5],[1,0.5]];portConstraint=eastwest;" parent="2OSr8VQqsQZBFfhrIndI-30" vertex="1">
          <mxGeometry y="26" width="170" height="26" as="geometry" />
        </mxCell>
        <mxCell id="2OSr8VQqsQZBFfhrIndI-34" value="KNN" style="shape=partialRectangle;html=1;whiteSpace=wrap;connectable=0;strokeColor=#56517e;overflow=hidden;fillColor=#d0cee2;top=0;left=0;bottom=0;right=0;pointerEvents=1;" parent="2OSr8VQqsQZBFfhrIndI-33" vertex="1">
          <mxGeometry width="170" height="26" as="geometry">
            <mxRectangle width="170" height="26" as="alternateBounds" />
          </mxGeometry>
        </mxCell>
        <mxCell id="2OSr8VQqsQZBFfhrIndI-35" value="" style="shape=tableRow;horizontal=0;startSize=0;swimlaneHead=0;swimlaneBody=0;strokeColor=inherit;top=0;left=0;bottom=0;right=0;collapsible=0;dropTarget=0;fillColor=none;points=[[0,0.5],[1,0.5]];portConstraint=eastwest;" parent="2OSr8VQqsQZBFfhrIndI-30" vertex="1">
          <mxGeometry y="52" width="170" height="26" as="geometry" />
        </mxCell>
        <mxCell id="2OSr8VQqsQZBFfhrIndI-36" value="Random Forest" style="shape=partialRectangle;html=1;whiteSpace=wrap;connectable=0;strokeColor=#56517e;overflow=hidden;fillColor=#d0cee2;top=0;left=0;bottom=0;right=0;pointerEvents=1;" parent="2OSr8VQqsQZBFfhrIndI-35" vertex="1">
          <mxGeometry width="170" height="26" as="geometry">
            <mxRectangle width="170" height="26" as="alternateBounds" />
          </mxGeometry>
        </mxCell>
        <mxCell id="UewjNEP305xuizKqZ12j-7" value="" style="shape=singleArrow;whiteSpace=wrap;html=1;arrowWidth=0.4;arrowSize=0.4;fillColor=#d5e8d4;strokeColor=#82b366;rounded=1;" vertex="1" parent="2OSr8VQqsQZBFfhrIndI-35">
          <mxGeometry x="170" width="NaN" height="26" as="geometry">
            <mxRectangle width="NaN" height="26" as="alternateBounds" />
          </mxGeometry>
        </mxCell>
        <mxCell id="2OSr8VQqsQZBFfhrIndI-37" value="" style="shape=tableRow;horizontal=0;startSize=0;swimlaneHead=0;swimlaneBody=0;strokeColor=inherit;top=0;left=0;bottom=0;right=0;collapsible=0;dropTarget=0;fillColor=none;points=[[0,0.5],[1,0.5]];portConstraint=eastwest;" parent="2OSr8VQqsQZBFfhrIndI-30" vertex="1">
          <mxGeometry y="78" width="170" height="26" as="geometry" />
        </mxCell>
        <mxCell id="2OSr8VQqsQZBFfhrIndI-38" value="XGBoost" style="shape=partialRectangle;html=1;whiteSpace=wrap;connectable=0;strokeColor=#56517e;overflow=hidden;fillColor=#d0cee2;top=0;left=0;bottom=0;right=0;pointerEvents=1;" parent="2OSr8VQqsQZBFfhrIndI-37" vertex="1">
          <mxGeometry width="170" height="26" as="geometry">
            <mxRectangle width="170" height="26" as="alternateBounds" />
          </mxGeometry>
        </mxCell>
        <mxCell id="2OSr8VQqsQZBFfhrIndI-39" value="" style="shape=tableRow;horizontal=0;startSize=0;swimlaneHead=0;swimlaneBody=0;strokeColor=inherit;top=0;left=0;bottom=0;right=0;collapsible=0;dropTarget=0;fillColor=none;points=[[0,0.5],[1,0.5]];portConstraint=eastwest;" parent="2OSr8VQqsQZBFfhrIndI-30" vertex="1">
          <mxGeometry y="104" width="170" height="26" as="geometry" />
        </mxCell>
        <mxCell id="2OSr8VQqsQZBFfhrIndI-40" value="AdaBoost" style="shape=partialRectangle;html=1;whiteSpace=wrap;connectable=0;strokeColor=#56517e;overflow=hidden;fillColor=#d0cee2;top=0;left=0;bottom=0;right=0;pointerEvents=1;" parent="2OSr8VQqsQZBFfhrIndI-39" vertex="1">
          <mxGeometry width="170" height="26" as="geometry">
            <mxRectangle width="170" height="26" as="alternateBounds" />
          </mxGeometry>
        </mxCell>
        <mxCell id="UewjNEP305xuizKqZ12j-2" style="edgeStyle=orthogonalEdgeStyle;rounded=0;orthogonalLoop=1;jettySize=auto;html=1;exitX=0.5;exitY=1;exitDx=0;exitDy=0;" edge="1" parent="2OSr8VQqsQZBFfhrIndI-28" source="2OSr8VQqsQZBFfhrIndI-29" target="2OSr8VQqsQZBFfhrIndI-29">
          <mxGeometry relative="1" as="geometry" />
        </mxCell>
        <mxCell id="UewjNEP305xuizKqZ12j-8" value="" style="edgeStyle=orthogonalEdgeStyle;rounded=0;orthogonalLoop=1;jettySize=auto;html=1;" edge="1" parent="WIyWlLk6GJQsqaUBKTNV-1" source="2OSr8VQqsQZBFfhrIndI-41" target="UewjNEP305xuizKqZ12j-7">
          <mxGeometry relative="1" as="geometry" />
        </mxCell>
        <mxCell id="UewjNEP305xuizKqZ12j-9" style="edgeStyle=orthogonalEdgeStyle;rounded=0;orthogonalLoop=1;jettySize=auto;html=1;exitX=0;exitY=0.5;exitDx=0;exitDy=0;" edge="1" parent="WIyWlLk6GJQsqaUBKTNV-1" source="2OSr8VQqsQZBFfhrIndI-41">
          <mxGeometry relative="1" as="geometry">
            <mxPoint x="420" y="640" as="targetPoint" />
          </mxGeometry>
        </mxCell>
        <mxCell id="2OSr8VQqsQZBFfhrIndI-41" value="Model Tuning" style="rounded=1;whiteSpace=wrap;html=1;fillColor=#d5e8d4;strokeColor=#82b366;" parent="WIyWlLk6GJQsqaUBKTNV-1" vertex="1">
          <mxGeometry x="479" y="620" width="120" height="40" as="geometry" />
        </mxCell>
        <mxCell id="2OSr8VQqsQZBFfhrIndI-46" value="" style="edgeStyle=orthogonalEdgeStyle;rounded=0;orthogonalLoop=1;jettySize=auto;html=1;" parent="WIyWlLk6GJQsqaUBKTNV-1" source="2OSr8VQqsQZBFfhrIndI-43" target="2OSr8VQqsQZBFfhrIndI-45" edge="1">
          <mxGeometry relative="1" as="geometry" />
        </mxCell>
        <mxCell id="2OSr8VQqsQZBFfhrIndI-43" value="Model Evaluation" style="rounded=1;whiteSpace=wrap;html=1;fillColor=#ffe6cc;strokeColor=#d79b00;" parent="WIyWlLk6GJQsqaUBKTNV-1" vertex="1">
          <mxGeometry x="269" y="880" width="120" height="40" as="geometry" />
        </mxCell>
        <mxCell id="2OSr8VQqsQZBFfhrIndI-45" value="Model Deployment" style="rounded=1;whiteSpace=wrap;html=1;fillColor=#ffe6cc;strokeColor=#d79b00;" parent="WIyWlLk6GJQsqaUBKTNV-1" vertex="1">
          <mxGeometry x="269" y="960" width="120" height="40" as="geometry" />
        </mxCell>
        <mxCell id="UewjNEP305xuizKqZ12j-4" value="" style="edgeStyle=orthogonalEdgeStyle;rounded=0;orthogonalLoop=1;jettySize=auto;html=1;" edge="1" parent="WIyWlLk6GJQsqaUBKTNV-1" source="UewjNEP305xuizKqZ12j-0" target="2OSr8VQqsQZBFfhrIndI-43">
          <mxGeometry relative="1" as="geometry" />
        </mxCell>
        <mxCell id="UewjNEP305xuizKqZ12j-0" value="Model Selection" style="rounded=1;whiteSpace=wrap;html=1;fillColor=#ffe6cc;strokeColor=#d79b00;" vertex="1" parent="WIyWlLk6GJQsqaUBKTNV-1">
          <mxGeometry x="269" y="800" width="120" height="40" as="geometry" />
        </mxCell>
      </root>
    </mxGraphModel>
  </diagram>
</mxfile>
